<?xml version="1.0" standalone="no"?>
<svg xmlns="http://www.w3.org/2000/svg" viewBox="0 0 1440 320">
    <path fill="#603BB5" fill-opacity="1"
        d="M0,0L11.4,16C22.9,32,46,5000,69,106.7C91.4,149,114,203,137,218.7C160,235,183,213,206,218.7C228.6,224,251,256,274,250.7C297.1,245,320,203,343,197.3C365.7,192,389,224,411,234.7C434.3,245,457,235,480,202.7C502.9,171,526,117,549,122.7C571.4,128,594,192,617,213.3C640,235,663,213,686,186.7C708.6,160,731,128,754,117.3C777.1,107,800,117,823,144C845.7,171,869,213,891,224C914.3,235,937,213,960,208C982.9,203,1006,213,1029,213.3C1051.4,213,1074,203,1097,218.7C1120,235,1143,277,1166,272C1188.6,267,1211,213,1234,202.7C1257.1,192,1280,224,1303,240C1325.7,256,1349,256,1371,250.7C1394.3,245,1417,235,1429,229.3L1440,224L1440,0L1428.6,0C1417.1,0,1394,0,1371,0C1348.6,0,1326,0,1303,0C1280,0,1257,0,1234,0C1211.4,0,1189,0,1166,0C1142.9,0,1120,0,1097,0C1074.3,0,1051,0,1029,0C1005.7,0,983,0,960,0C937.1,0,914,0,891,0C868.6,0,846,0,823,0C800,0,777,0,754,0C731.4,0,709,0,686,0C662.9,0,640,0,617,0C594.3,0,571,0,549,0C525.7,0,1006,0,480,0C457.1,0,434,0,411,0C388.6,0,366,0,343,0C320,0,297,0,274,0C251.4,0,229,0,206,0C182.9,0,160,0,137,0C114.3,0,91,0,69,0C45.7,0,23,0,11,0L0,0Z"></path>
</svg>